<svg xmlns="http://www.w3.org/2000/svg" x="0px" y="0px" viewBox="0 0 32 32">
	<defs>
		<style type="text/css">
			.st0{fill:#09090B;}
			.st1{fill:#FFFFFF;}
		</style>
	</defs>
	<g>
		<path class="st0" d="M32,27c0,2.8-2.2,5-5,5H5c-2.8,0-5-2.2-5-5V5c0-2.8,2.2-5,5-5h22c2.8,0,5,2.2,5,5V27z"/>
	</g>
	<g>
		<path class="st1" d="M23.4,18.1v1c0,0.5-0.4,1-0.9,1.1c-0.6,0.1-1.1-0.3-1.2-0.9c0-0.1,0-0.1,0-0.2V8.8c0-1.7-1.2-3.1-2.8-3.3
			c-1.7-0.2-3.3,1.1-3.4,2.8c0,0.1,0,0.2,0,0.3v14.6c0,0.5-0.4,1-0.9,1.1c-0.6,0.1-1.1-0.3-1.2-0.9c0-0.1,0-0.1,0-0.2v-9.8
			c0-1.7-1.2-3.1-2.8-3.3C8.3,10,6.7,11.3,6.6,13c0,0.1,0,0.2,0,0.3v0.5c0,0.4-0.2,0.7-0.5,0.9c-0.3,0.2-0.5,0.5-0.5,0.8v0.2
			c0,0.5,0.4,1,0.9,1c0.1,0,0.3,0,0.4-0.1c1.1-0.5,1.8-1.6,1.8-2.8v-0.4c0-0.5,0.4-1,0.9-1.1c0.6-0.1,1.1,0.3,1.2,0.8
			c0,0.1,0,0.1,0,0.2v9.8c0,1.7,1.2,3.1,2.8,3.3c1.7,0.2,3.3-1.1,3.4-2.8c0-0.1,0-0.2,0-0.3V8.7c0-0.5,0.4-1,0.9-1.1
			c0.6-0.1,1.1,0.3,1.2,0.8c0,0.1,0,0.1,0,0.2V19c0,1.7,1.2,3.1,2.8,3.3c1.7,0.2,3.3-1.1,3.4-2.8c0-0.1,0-0.2,0-0.3v-1.1
			c0-0.4,0.2-0.7,0.5-0.9c0.3-0.2,0.5-0.5,0.5-0.8v-0.2c0-0.5-0.4-1-1-1c-0.1,0-0.3,0-0.4,0.1C24,15.8,23.4,16.9,23.4,18.1z"/>
	</g>
</svg>
