<svg xmlns="http://www.w3.org/2000/svg" width="32" height="32" viewBox="0 0 32 32">
  <defs>
		<style>
    .cls-1{fill:#000000;}
      @media (prefers-color-scheme: dark) {
        .cls-1{fill:#ffffff;}
      }
    </style>
	</defs>
	<path class="cls-1" d="M205.51,41.1v1.52a1.67,1.67,0,0,1-1.33,1.66,1.6,1.6,0,0,1-1.87-1.58V26.91a4.93,4.93,0,0,0-4.33-5,4.8,4.8,0,0,0-5.27,4.77V49a1.67,1.67,0,0,1-1.33,1.66,1.6,1.6,0,0,1-1.87-1.58v-15a4.93,4.93,0,0,0-4.33-5,4.8,4.8,0,0,0-5.27,4.77v.8a1.62,1.62,0,0,1-.79,1.39,1.48,1.48,0,0,0-.81,1.27v.28A1.49,1.49,0,0,0,180.39,39a4.8,4.8,0,0,0,2.72-4.33V34a1.64,1.64,0,0,1,1.33-1.66,1.59,1.59,0,0,1,1.87,1.57v15a4.94,4.94,0,0,0,4.33,5,4.8,4.8,0,0,0,5.27-4.78V26.79a1.64,1.64,0,0,1,1.33-1.66,1.59,1.59,0,0,1,1.87,1.57V42.5a4.94,4.94,0,0,0,4.33,5,4.8,4.8,0,0,0,5.27-4.78V41.1a1.6,1.6,0,0,1,.79-1.38,1.5,1.5,0,0,0,.81-1.28v-.28a1.49,1.49,0,0,0-2.09-1.38A4.8,4.8,0,0,0,205.51,41.1Z" transform="translate(-178.31 -21.9)"/>
</svg>