<svg xmlns="http://www.w3.org/2000/svg" viewBox="0 0 230.87 51"><defs><style>.cls-1{fill:#231f20;}.cls-2{fill:none;stroke-width:2px;}.cls-2,.cls-3{stroke:#010101;stroke-linecap:round;stroke-linejoin:round;}.cls-3{fill:#fff;}</style></defs><g id="Layer_2" data-name="Layer 2"><g id="Layer_1-2" data-name="Layer 1"><path d="M76.21,40.44a12.47,12.47,0,0,1-6.53-1.73A12.34,12.34,0,0,1,65.15,34a13.55,13.55,0,0,1-1.66-6.69,13.74,13.74,0,0,1,1.66-6.79,12.34,12.34,0,0,1,4.53-4.73A12.47,12.47,0,0,1,76.21,14a14.88,14.88,0,0,1,6.22,1.27,10.75,10.75,0,0,1,4.39,3.48l-3.7,4.51a8.35,8.35,0,0,0-1.68-1.68,8.44,8.44,0,0,0-2.18-1.2A7.13,7.13,0,0,0,76.84,20a6.46,6.46,0,0,0-5.91,3.53,8,8,0,0,0-.86,3.72A7.35,7.35,0,0,0,71,30.89a7,7,0,0,0,2.45,2.59,6.29,6.29,0,0,0,3.41,1,7.73,7.73,0,0,0,2.37-.36A7,7,0,0,0,81.3,33a12.42,12.42,0,0,0,1.82-1.68l3.7,4.51a11.13,11.13,0,0,1-4.49,3.34A15.25,15.25,0,0,1,76.21,40.44Z"/><path d="M87.59,40V4.44h6.76V19.75L93,20.33a7.25,7.25,0,0,1,1.87-3.15,11,11,0,0,1,3.31-2.28,9.75,9.75,0,0,1,4-.86A9.27,9.27,0,0,1,107,15.19a7.13,7.13,0,0,1,2.93,3.48,14.82,14.82,0,0,1,1,5.79V40H104.1v-15a7.47,7.47,0,0,0-.48-2.88,3.25,3.25,0,0,0-1.44-1.68,4.58,4.58,0,0,0-2.45-.48,6,6,0,0,0-2.11.36,5.32,5.32,0,0,0-1.71,1,4.58,4.58,0,0,0-1.12,1.53,4.64,4.64,0,0,0-.39,1.92V40H87.59Z"/><path d="M121,40.44a9.71,9.71,0,0,1-4.35-1,7.73,7.73,0,0,1-3.07-2.66,7.14,7.14,0,0,1-1.13-4,8,8,0,0,1,.72-3.48,6.28,6.28,0,0,1,2.14-2.5,10.74,10.74,0,0,1,3.55-1.51,20.92,20.92,0,0,1,5-.53h7.49l-.43,4.56h-7.16a10.34,10.34,0,0,0-2,.19,4,4,0,0,0-1.49.63,3.06,3.06,0,0,0-.91,1,2.8,2.8,0,0,0-.31,1.35,2.47,2.47,0,0,0,.43,1.44,2.73,2.73,0,0,0,1.18,1,4.13,4.13,0,0,0,1.7.33,7.51,7.51,0,0,0,2.67-.47,7.6,7.6,0,0,0,2.28-1.35,6.45,6.45,0,0,0,1.58-2l1.3,3.41a12.56,12.56,0,0,1-2.45,2.88,12,12,0,0,1-3.12,2A8.94,8.94,0,0,1,121,40.44Zm7-.48V24.07A3.89,3.89,0,0,0,126.68,21a4.78,4.78,0,0,0-3.29-1.08,7.73,7.73,0,0,0-3.5.76,9.31,9.31,0,0,0-2.88,2.4l-4.17-4A16.53,16.53,0,0,1,118,15.34a14.81,14.81,0,0,1,6.22-1.3,13.7,13.7,0,0,1,5.35,1,7.59,7.59,0,0,1,3.53,2.88,8.76,8.76,0,0,1,1.25,4.85V40Z"/><path d="M136.88,40V14.57h6.58l.24,8.16L142.55,21a10.91,10.91,0,0,1,1.89-3.5,9.64,9.64,0,0,1,3-2.52,7.62,7.62,0,0,1,3.67-.94,10.14,10.14,0,0,1,1.61.12,5,5,0,0,1,1.27.36L152.19,22a8.87,8.87,0,0,0-1.36-.46,7,7,0,0,0-1.71-.21,5.3,5.3,0,0,0-2.09.41,5.15,5.15,0,0,0-1.72,1.15,5.25,5.25,0,0,0-1.16,1.75,6,6,0,0,0-.4,2.26V40Z"/><path d="M165.15,51a20.8,20.8,0,0,1-5.92-.87,13.92,13.92,0,0,1-4.78-2.3l2.4-4.89a13.26,13.26,0,0,0,3.53,1.68,13.81,13.81,0,0,0,4.1.62,9.67,9.67,0,0,0,4.15-.77,5,5,0,0,0,2.4-2.28,8.15,8.15,0,0,0,.8-3.81V34l1.15.29a5.46,5.46,0,0,1-1.61,2.81A10.55,10.55,0,0,1,164.1,40a11.79,11.79,0,0,1-10.61-6.19,13.49,13.49,0,0,1-1.58-6.63,14.2,14.2,0,0,1,1.58-6.81,12,12,0,0,1,4.3-4.66A11.34,11.34,0,0,1,163.91,14a10.87,10.87,0,0,1,2.76.34,10.63,10.63,0,0,1,2.44.93,12.79,12.79,0,0,1,2,1.32,6.74,6.74,0,0,1,1.49,1.59,4.23,4.23,0,0,1,.72,1.72l-1.44.44.19-5.81h6.58V38a15.07,15.07,0,0,1-.94,5.5,11.08,11.08,0,0,1-2.68,4.08,11.64,11.64,0,0,1-4.25,2.51A17.18,17.18,0,0,1,165.15,51Zm.2-16.51a6.73,6.73,0,0,0,3.52-.91A6.25,6.25,0,0,0,171.23,31a8.17,8.17,0,0,0,.84-3.79,8.3,8.3,0,0,0-.84-3.84,6.44,6.44,0,0,0-2.36-2.57,6.56,6.56,0,0,0-3.52-.93,6.37,6.37,0,0,0-3.46.93,6.51,6.51,0,0,0-2.33,2.57,8.17,8.17,0,0,0-.84,3.79,8.36,8.36,0,0,0,.84,3.82,6.31,6.31,0,0,0,2.33,2.57A6.54,6.54,0,0,0,165.35,34.49Z"/><path d="M193.86,40.44a14.93,14.93,0,0,1-7.23-1.68,12.18,12.18,0,0,1-4.8-4.61,13.05,13.05,0,0,1-1.7-6.67,15,15,0,0,1,1-5.45,12.58,12.58,0,0,1,2.69-4.25,12.25,12.25,0,0,1,4.1-2.76,13.62,13.62,0,0,1,5.21-1,11.92,11.92,0,0,1,4.78.94,11.16,11.16,0,0,1,3.79,2.64,11.86,11.86,0,0,1,2.47,4,13.54,13.54,0,0,1,.82,5l0,2.12H184.5l-1.11-4.23h15.89l-.81.87v-1a4.48,4.48,0,0,0-.84-2.35,5.46,5.46,0,0,0-4.44-2.21,7.22,7.22,0,0,0-3.63.84,5.41,5.41,0,0,0-2.21,2.4,9,9,0,0,0-.74,3.86,7.9,7.9,0,0,0,1,4,6.41,6.41,0,0,0,2.76,2.62,9.28,9.28,0,0,0,4.25.91,8.64,8.64,0,0,0,3.07-.53,11.52,11.52,0,0,0,3-1.82l3.22,4.56a14.63,14.63,0,0,1-3,2.06,15.62,15.62,0,0,1-3.46,1.3A15.39,15.39,0,0,1,193.86,40.44Z"/><path d="M216.37,40.44a11,11,0,0,1-6-1.68,11.57,11.57,0,0,1-4.17-4.68,14.84,14.84,0,0,1-1.51-6.79,14.85,14.85,0,0,1,1.51-6.82,12,12,0,0,1,4.15-4.7,11.16,11.16,0,0,1,9.43-1.18,10.4,10.4,0,0,1,2.95,1.51,9.33,9.33,0,0,1,2.12,2.14,5.36,5.36,0,0,1,1,2.42L224.1,21V4.44h6.77V40h-6.44l-.28-5.86,1.34.19a4.23,4.23,0,0,1-.82,2.26,7.91,7.91,0,0,1-2,2,10.15,10.15,0,0,1-2.88,1.4A11.42,11.42,0,0,1,216.37,40.44Zm1.49-5.66a5.87,5.87,0,0,0,3.38-1,6.55,6.55,0,0,0,2.23-2.65,8.66,8.66,0,0,0,.82-3.88,9,9,0,0,0-.82-4,6.32,6.32,0,0,0-2.23-2.64,6.42,6.42,0,0,0-6.69,0,6.14,6.14,0,0,0-2.24,2.64,9.39,9.39,0,0,0-.79,4,9.08,9.08,0,0,0,.79,3.88,6.34,6.34,0,0,0,2.24,2.65A5.82,5.82,0,0,0,217.86,34.78Z"/><rect class="cls-1" x="1" y="1" width="48" height="48" rx="5"/><rect class="cls-2" x="1" y="1" width="48" height="48" rx="5"/><path class="cls-3" d="M11.62,27.46,28.85,9l-3.7,13.54H38.69L21.46,41l3.69-13.54Z"/></g></g></svg>