<svg id="Isolation_Mode" data-name="Isolation Mode" xmlns="http://www.w3.org/2000/svg" viewBox="0 0 32 32"><defs><style>.cls-1{fill:#dfdfd6;}</style></defs><path class="cls-1" d="M165.51,346.13v1.6a1.6,1.6,0,1,1-3.2,0v-16a4.8,4.8,0,0,0-9.6,0v22.4a1.6,1.6,0,0,1-3.2,0v-15.2a4.8,4.8,0,1,0-9.6,0v.8a1.6,1.6,0,0,1-1.6,1.6v3.2a4.8,4.8,0,0,0,4.8-4.8v-.8a1.6,1.6,0,1,1,3.2,0v15.2a4.8,4.8,0,1,0,9.6,0v-22.4a1.6,1.6,0,1,1,3.2,0v16a4.8,4.8,0,0,0,9.6,0v-1.6a1.59,1.59,0,0,1,1.6-1.6v-3.2A4.8,4.8,0,0,0,165.51,346.13Z" transform="translate(-138.31 -326.93)"/></svg>