<svg id="Layer_1" data-name="Layer 1" xmlns="http://www.w3.org/2000/svg" viewBox="0 0 25 25"><defs><style>.cls-1{fill:none;stroke:#ffffff;stroke-miterlimit:10;}.cls-2{fill:#ffffff;}</style></defs><rect class="cls-1" x="0.5" y="0.5" width="24" height="24" rx="8"/><path class="cls-2" d="M29,63a.31.31,0,0,0,.24.35h.08l5.39-.43a.3.3,0,0,1,.32.28.24.24,0,0,1,0,.14l-3.78,8.9,1.37-7a.3.3,0,0,0-.23-.35h-.08l-5.4.43a.29.29,0,0,1-.32-.27.32.32,0,0,1,0-.14l3.69-8.68Z" transform="translate(-17.7 -51.5)"/></svg>