<svg xmlns="http://www.w3.org/2000/svg" viewBox="0 0 229.8 67.17"><defs><style>.cls-1{fill:#e02049;}.cls-2{fill:#fff;}</style></defs><g id="Layer_2" data-name="Layer 2"><g id="Layer_1-2" data-name="Layer 1"><path class="cls-1" d="M47.24,13.16l-9.7-3.5,2.39-8.17A1.17,1.17,0,0,0,39.38.14,1.15,1.15,0,0,0,38,.4L31.66,7.54,24.39,4.91a1.19,1.19,0,0,0-.79,0L.76,13.16A1.15,1.15,0,0,0,0,14.25v19.9c0,9.32,3.6,16.44,11,21.74l-2.87,9.8A1.15,1.15,0,0,0,8.63,67a1.32,1.32,0,0,0,.56.14,1.14,1.14,0,0,0,.87-.4l6.57-7.47a56.87,56.87,0,0,0,7,3,1.19,1.19,0,0,0,.37.06,1.27,1.27,0,0,0,.39-.06C34.52,58.69,48,51.88,48,34.15V14.25A1.11,1.11,0,0,0,47.24,13.16Zm-44.91,21V15.05L24,7.23,30,9.4,6.83,35.77a1.16,1.16,0,0,0,.88,1.92H16.3L11.66,53.51C5.42,48.71,2.33,42.37,2.33,34.14Zm9.45,27.18L19,36.86a1.16,1.16,0,0,0-.19-1,1.14,1.14,0,0,0-.92-.46H10.27L32.87,9.7l0,0,3.35-3.82L29.07,30.31a1.15,1.15,0,0,0,1.11,1.48h7.58ZM45.69,34.14C45.69,46.58,39,54.55,24,59.94a55.5,55.5,0,0,1-5.78-2.44l23-26.1a1.15,1.15,0,0,0-.87-1.92H31.73l5.16-17.6,8.81,3.17V34.14Z"/><path class="cls-2" d="M75.15,49.35a12.32,12.32,0,0,1-11.07-6.46,13.65,13.65,0,0,1-1.65-6.69,13.84,13.84,0,0,1,1.65-6.79A12.32,12.32,0,0,1,75.15,23a14.83,14.83,0,0,1,6.21,1.27,10.72,10.72,0,0,1,4.4,3.48l-3.7,4.51a8.9,8.9,0,0,0-1.68-1.68,8.44,8.44,0,0,0-2.18-1.2,7.23,7.23,0,0,0-2.43-.43,6.53,6.53,0,0,0-3.5.94,6.39,6.39,0,0,0-2.4,2.59A7.85,7.85,0,0,0,69,36.15a7.46,7.46,0,0,0,.91,3.65,7.09,7.09,0,0,0,2.45,2.59,6.32,6.32,0,0,0,3.41,1A7.84,7.84,0,0,0,78.15,43a7.17,7.17,0,0,0,2.09-1.08,13.52,13.52,0,0,0,1.82-1.68l3.7,4.51a11.2,11.2,0,0,1-4.49,3.34A15.25,15.25,0,0,1,75.15,49.35Z"/><path class="cls-2" d="M86.52,48.87V13.35h6.77V28.66L92,29.24a7.25,7.25,0,0,1,1.87-3.15,11,11,0,0,1,3.31-2.28,9.7,9.7,0,0,1,4-.86,9.34,9.34,0,0,1,4.83,1.15,7.19,7.19,0,0,1,2.93,3.48,15,15,0,0,1,1,5.79v15.5H103v-15a7.67,7.67,0,0,0-.47-2.88,3.32,3.32,0,0,0-1.45-1.68,4.54,4.54,0,0,0-2.44-.48,5.91,5.91,0,0,0-2.11.36,5.21,5.21,0,0,0-1.71,1,4.61,4.61,0,0,0-1.13,1.53,4.8,4.8,0,0,0-.38,1.92V48.87H86.52Z"/><path class="cls-2" d="M119.88,49.35a9.64,9.64,0,0,1-4.34-1,7.66,7.66,0,0,1-3.07-2.66,7.06,7.06,0,0,1-1.13-4,8,8,0,0,1,.72-3.48,6.34,6.34,0,0,1,2.13-2.5,10.8,10.8,0,0,1,3.56-1.51,20.89,20.89,0,0,1,5-.53h7.49l-.43,4.56h-7.15a10.26,10.26,0,0,0-2,.19,4,4,0,0,0-1.49.63,3,3,0,0,0-.91,1,2.8,2.8,0,0,0-.31,1.35,2.47,2.47,0,0,0,.43,1.44,2.84,2.84,0,0,0,1.17,1,4.21,4.21,0,0,0,1.71.33,7.48,7.48,0,0,0,4.94-1.82,6.64,6.64,0,0,0,1.59-2L129,43.78a12.31,12.31,0,0,1-2.45,2.88,12,12,0,0,1-3.12,2A8.91,8.91,0,0,1,119.88,49.35Zm7-.48V33a3.92,3.92,0,0,0-1.22-3.09,4.8,4.8,0,0,0-3.29-1.08,7.73,7.73,0,0,0-3.5.76A9.09,9.09,0,0,0,116,32l-4.18-4a16.68,16.68,0,0,1,5.16-3.69,14.78,14.78,0,0,1,6.22-1.3,13.74,13.74,0,0,1,5.35,1A7.64,7.64,0,0,1,132,26.79a8.76,8.76,0,0,1,1.24,4.85V48.87Z"/><path class="cls-2" d="M135.82,48.87V23.48h6.57l.24,8.16-1.15-1.73a10.93,10.93,0,0,1,1.9-3.5,9.6,9.6,0,0,1,3-2.52,7.62,7.62,0,0,1,3.67-.94,10,10,0,0,1,1.61.12,4.93,4.93,0,0,1,1.27.36l-1.82,7.44a9,9,0,0,0-1.37-.46,7,7,0,0,0-1.7-.21,5.27,5.27,0,0,0-2.09.41,5.21,5.21,0,0,0-2.88,2.9,6,6,0,0,0-.41,2.26v13.1Z"/><path class="cls-2" d="M164.09,59.91a20.87,20.87,0,0,1-5.93-.87,13.77,13.77,0,0,1-4.77-2.3l2.4-4.89a13.34,13.34,0,0,0,3.52,1.68,13.88,13.88,0,0,0,4.11.62,9.7,9.7,0,0,0,4.15-.77A5.11,5.11,0,0,0,170,51.1a8.17,8.17,0,0,0,.79-3.82V42.87l1.15.29a5.51,5.51,0,0,1-1.6,2.81,10,10,0,0,1-3.24,2.13,10.13,10.13,0,0,1-4,.82,12,12,0,0,1-6.26-1.66,11.74,11.74,0,0,1-4.34-4.53,13.49,13.49,0,0,1-1.59-6.63,14.21,14.21,0,0,1,1.59-6.81,11.86,11.86,0,0,1,4.29-4.66A11.39,11.39,0,0,1,162.84,23a10.87,10.87,0,0,1,2.76.34,10.71,10.71,0,0,1,2.45.93,13.76,13.76,0,0,1,2,1.32,7,7,0,0,1,1.49,1.59,4.53,4.53,0,0,1,.72,1.72l-1.44.44.19-5.81h6.58V47a15.19,15.19,0,0,1-.94,5.49A10.93,10.93,0,0,1,174,56.53,11.55,11.55,0,0,1,169.75,59,17.12,17.12,0,0,1,164.09,59.91Zm.19-16.51a6.77,6.77,0,0,0,3.53-.91,6.23,6.23,0,0,0,2.35-2.55,8.17,8.17,0,0,0,.84-3.79,8.3,8.3,0,0,0-.84-3.84,6.41,6.41,0,0,0-2.35-2.57,6.59,6.59,0,0,0-3.53-.93,6.36,6.36,0,0,0-3.45.93,6.44,6.44,0,0,0-2.33,2.57,8.17,8.17,0,0,0-.84,3.79,8.36,8.36,0,0,0,.84,3.82,6.24,6.24,0,0,0,2.33,2.57A6.53,6.53,0,0,0,164.28,43.4Z"/><path class="cls-2" d="M192.79,49.35a14.89,14.89,0,0,1-7.22-1.68,12.11,12.11,0,0,1-4.8-4.61,13,13,0,0,1-1.71-6.67,15,15,0,0,1,1-5.45,12.56,12.56,0,0,1,2.68-4.25,12.29,12.29,0,0,1,4.11-2.76A13.58,13.58,0,0,1,192,23a11.87,11.87,0,0,1,4.77.94,11.07,11.07,0,0,1,3.79,2.64,11.56,11.56,0,0,1,2.47,4,13.54,13.54,0,0,1,.82,5l0,2.12h-20.4l-1.1-4.23h15.89l-.82.87v-1a4.31,4.31,0,0,0-.84-2.35,5.43,5.43,0,0,0-4.44-2.21,7.15,7.15,0,0,0-3.62.84,5.3,5.3,0,0,0-2.21,2.4,8.89,8.89,0,0,0-.74,3.86,7.8,7.8,0,0,0,1,4,6.34,6.34,0,0,0,2.75,2.62,9.31,9.31,0,0,0,4.25.91,8.7,8.7,0,0,0,3.08-.53,11.85,11.85,0,0,0,3-1.82l3.22,4.56a14.7,14.7,0,0,1-3,2.06,15.18,15.18,0,0,1-7,1.73Z"/><path class="cls-2" d="M215.31,49.35a11,11,0,0,1-6-1.68A11.52,11.52,0,0,1,205.15,43a15,15,0,0,1-1.51-6.79,15,15,0,0,1,1.51-6.82,12,12,0,0,1,4.16-4.7,11.16,11.16,0,0,1,9.43-1.18A10.53,10.53,0,0,1,221.69,25a9.28,9.28,0,0,1,2.11,2.14,5.14,5.14,0,0,1,1,2.42l-1.73.34V13.35h6.77V48.87h-6.43L223.08,43l1.35.19a4.31,4.31,0,0,1-.82,2.26,7.91,7.91,0,0,1-2,2,10.42,10.42,0,0,1-2.88,1.4A11.42,11.42,0,0,1,215.31,49.35Zm1.48-5.66a5.92,5.92,0,0,0,3.39-1,6.62,6.62,0,0,0,2.23-2.65,8.79,8.79,0,0,0,.81-3.88,9.09,9.09,0,0,0-.81-4,6.4,6.4,0,0,0-2.23-2.64,6,6,0,0,0-3.39-.94,5.91,5.91,0,0,0-3.31.94,6.12,6.12,0,0,0-2.23,2.64,9.24,9.24,0,0,0-.79,4,8.93,8.93,0,0,0,.79,3.88,6.32,6.32,0,0,0,2.23,2.65A5.84,5.84,0,0,0,216.79,43.69Z"/></g></g></svg>