<svg xmlns="http://www.w3.org/2000/svg" width="110" height="24" viewBox="0 0 221.17 48"><defs><style>.cls-1{fill:#010101;}.cls-2{fill:#231f20;}.cls-3{fill:#787878;}</style></defs><g id="Layer_2" data-name="Layer 2"><g id="Layer_1-2" data-name="Layer 1"><path class="cls-1" d="M24,0A24,24,0,1,0,48,24,24,24,0,0,0,24,0ZM1.8,24a22.22,22.22,0,0,1,30-20.81l-19.49,24h10L16.19,44.78A22.24,22.24,0,0,1,1.8,24ZM24,46.2a22.18,22.18,0,0,1-7.75-1.39l19.49-24h-10L31.81,3.22A22.2,22.2,0,0,1,24,46.2Z"/><path class="cls-2" d="M69.11,35.36a9.25,9.25,0,0,1-8.3-4.84,10.22,10.22,0,0,1-1.24-5,10.34,10.34,0,0,1,1.24-5.09,9.25,9.25,0,0,1,8.3-4.84,11.25,11.25,0,0,1,4.66,1,8.11,8.11,0,0,1,3.3,2.61l-2.78,3.39A5.79,5.79,0,0,0,73,21.25a5.93,5.93,0,0,0-1.63-.9A5.18,5.18,0,0,0,69.58,20a4.93,4.93,0,0,0-2.63.71,4.75,4.75,0,0,0-1.8,1.94,6,6,0,0,0-.65,2.79,5.43,5.43,0,0,0,.69,2.73A5.2,5.2,0,0,0,67,30.14a4.73,4.73,0,0,0,2.56.72,5.81,5.81,0,0,0,1.78-.27,5.45,5.45,0,0,0,1.57-.81,10,10,0,0,0,1.36-1.26l2.78,3.38a8.31,8.31,0,0,1-3.37,2.5A11.24,11.24,0,0,1,69.11,35.36Z"/><path class="cls-2" d="M78.54,35V8.36h5.08V19.84l-1,.43A5.47,5.47,0,0,1,84,17.92a8.12,8.12,0,0,1,2.49-1.71,7.62,7.62,0,0,1,6.6.21A5.38,5.38,0,0,1,95.3,19,11.23,11.23,0,0,1,96,23.37V35H90.93V23.73a5.87,5.87,0,0,0-.36-2.16,2.55,2.55,0,0,0-1.08-1.26A3.67,3.67,0,0,0,87.65,20a4.4,4.4,0,0,0-1.58.27,3.8,3.8,0,0,0-1.28.78,3.16,3.16,0,0,0-.85,1.15,3.53,3.53,0,0,0-.29,1.44V35H78.54Z"/><path class="cls-2" d="M104.46,35.36a7.26,7.26,0,0,1-3.26-.72,5.75,5.75,0,0,1-2.3-2,5.26,5.26,0,0,1-.85-3A6,6,0,0,1,98.59,27a4.88,4.88,0,0,1,1.6-1.87A8,8,0,0,1,102.86,24a15.82,15.82,0,0,1,3.72-.4h5.62L111.88,27h-5.37a7.08,7.08,0,0,0-1.53.15,3,3,0,0,0-1.11.46,2.36,2.36,0,0,0-.69.76,2.15,2.15,0,0,0-.23,1,1.88,1.88,0,0,0,.32,1.08,2.16,2.16,0,0,0,.88.72,3.08,3.08,0,0,0,1.28.25,5.68,5.68,0,0,0,3.71-1.37,5,5,0,0,0,1.19-1.47l1,2.55a9.09,9.09,0,0,1-1.84,2.16,8.79,8.79,0,0,1-2.34,1.48A6.66,6.66,0,0,1,104.46,35.36Zm5.22-.36V23.08a3,3,0,0,0-.92-2.32A3.58,3.58,0,0,0,106.3,20a5.72,5.72,0,0,0-2.63.58,6.61,6.61,0,0,0-2.16,1.8l-3.13-3a12.48,12.48,0,0,1,3.87-2.77,11.08,11.08,0,0,1,4.66-1,10.29,10.29,0,0,1,4,.72,5.74,5.74,0,0,1,2.65,2.16,6.58,6.58,0,0,1,.93,3.64V35Z"/><path class="cls-2" d="M117.31,35V16h4.93l.18,6.12-.86-1.3A8.29,8.29,0,0,1,123,18.15a7.35,7.35,0,0,1,2.27-1.89,5.74,5.74,0,0,1,2.75-.7,7.55,7.55,0,0,1,1.21.09,3.7,3.7,0,0,1,.95.27L128.8,21.5a6.89,6.89,0,0,0-1-.34,5,5,0,0,0-1.28-.16,4.09,4.09,0,0,0-1.56.3,3.94,3.94,0,0,0-2.16,2.18,4.35,4.35,0,0,0-.31,1.69V35Z"/><path class="cls-2" d="M139.42,43.28a15.87,15.87,0,0,1-4.45-.65,10.39,10.39,0,0,1-3.58-1.73l1.8-3.67a9.63,9.63,0,0,0,2.64,1.26,10.36,10.36,0,0,0,3.08.47,7.21,7.21,0,0,0,3.12-.58,3.77,3.77,0,0,0,1.79-1.71,6.06,6.06,0,0,0,.6-2.86V30.5l.86.21a4,4,0,0,1-1.2,2.11,7.45,7.45,0,0,1-2.43,1.6,7.63,7.63,0,0,1-3,.61,8.91,8.91,0,0,1-4.69-1.24,8.81,8.81,0,0,1-3.26-3.4,10.18,10.18,0,0,1-1.19-5,10.73,10.73,0,0,1,1.19-5.11,8.9,8.9,0,0,1,3.22-3.49,8.53,8.53,0,0,1,4.59-1.26,8.27,8.27,0,0,1,2.07.25,8.44,8.44,0,0,1,1.84.7,10.59,10.59,0,0,1,1.53,1A5.39,5.39,0,0,1,145,18.69a3.28,3.28,0,0,1,.54,1.3l-1.08.32.15-4.35h4.93v17.6a11.34,11.34,0,0,1-.71,4.12,8.09,8.09,0,0,1-2,3.06,8.7,8.7,0,0,1-3.19,1.89A13,13,0,0,1,139.42,43.28Zm.14-12.38a5,5,0,0,0,2.65-.69A4.65,4.65,0,0,0,144,28.3a6.1,6.1,0,0,0,.63-2.84,6.24,6.24,0,0,0-.63-2.88,4.83,4.83,0,0,0-1.76-1.93,5,5,0,0,0-2.65-.7,4.7,4.7,0,0,0-4.34,2.63,6.13,6.13,0,0,0-.63,2.84,6.21,6.21,0,0,0,.63,2.86A4.62,4.62,0,0,0,137,30.21,4.8,4.8,0,0,0,139.56,30.9Z"/><path class="cls-2" d="M161.84,35.36a11.14,11.14,0,0,1-5.41-1.26,9,9,0,0,1-3.6-3.46,9.67,9.67,0,0,1-1.28-5,11.23,11.23,0,0,1,.72-4.09,9.47,9.47,0,0,1,2-3.18,9.09,9.09,0,0,1,3.08-2.07,10.16,10.16,0,0,1,3.91-.74,9,9,0,0,1,3.58.7,8.46,8.46,0,0,1,2.84,2,8.77,8.77,0,0,1,1.86,3,10.28,10.28,0,0,1,.61,3.78l0,1.58h-15.3L154,23.44h11.91l-.61.65v-.75a3.35,3.35,0,0,0-.63-1.77,4.14,4.14,0,0,0-1.42-1.2,4.08,4.08,0,0,0-1.91-.45,5.5,5.5,0,0,0-2.72.62A4.08,4.08,0,0,0,157,22.35a6.56,6.56,0,0,0-.56,2.89,5.94,5.94,0,0,0,.72,3,4.78,4.78,0,0,0,2.07,2,6.9,6.9,0,0,0,3.18.69,6.37,6.37,0,0,0,2.31-.4A9,9,0,0,0,167,29.1l2.41,3.42a11,11,0,0,1-2.27,1.54,11.45,11.45,0,0,1-2.59,1A11.09,11.09,0,0,1,161.84,35.36Z"/><path class="cls-2" d="M179.63,35.36a8.26,8.26,0,0,1-4.49-1.26A8.69,8.69,0,0,1,172,30.59a11.25,11.25,0,0,1-1.13-5.1A11.23,11.23,0,0,1,172,20.38a9,9,0,0,1,3.12-3.52,8,8,0,0,1,4.5-1.3,8.28,8.28,0,0,1,2.57.41,7.83,7.83,0,0,1,2.21,1.14,6.89,6.89,0,0,1,1.59,1.6,3.92,3.92,0,0,1,.72,1.82l-1.3.25V8.36h5.08V35h-4.83l-.21-4.39,1,.14a3.23,3.23,0,0,1-.61,1.69,6.12,6.12,0,0,1-1.54,1.5,7.73,7.73,0,0,1-2.16,1A8.47,8.47,0,0,1,179.63,35.36Zm1.11-4.25a4.41,4.41,0,0,0,2.54-.72,4.85,4.85,0,0,0,1.67-2,6.57,6.57,0,0,0,.62-2.92,6.83,6.83,0,0,0-.62-3,4.73,4.73,0,0,0-1.67-2,4.85,4.85,0,0,0-5,0,4.68,4.68,0,0,0-1.68,2,7.12,7.12,0,0,0-.59,3,6.86,6.86,0,0,0,.59,2.92,4.8,4.8,0,0,0,1.68,2A4.37,4.37,0,0,0,180.74,31.11Z"/><path class="cls-3" d="M200.76,35.36a6.77,6.77,0,0,1-3.57-.92,6,6,0,0,1-2.32-2.63,9.46,9.46,0,0,1-.81-4.08V16h5.11V26.79a4.71,4.71,0,0,0,1,3.15,3.25,3.25,0,0,0,2.64,1.13,4.57,4.57,0,0,0,1.57-.26,3.55,3.55,0,0,0,1.21-.78,3.75,3.75,0,0,0,.79-1.19,3.87,3.87,0,0,0,.29-1.51V16h5.11V35h-4.86l-.15-3.93.9-.43a5.89,5.89,0,0,1-1.42,2.42,7.47,7.47,0,0,1-2.43,1.69A7.58,7.58,0,0,1,200.76,35.36Z"/><path class="cls-3" d="M218,12a3.42,3.42,0,0,1-2.31-.72,2.57,2.57,0,0,1-.82-2.05,2.6,2.6,0,0,1,.84-2,3.35,3.35,0,0,1,2.32-.77,3.25,3.25,0,0,1,2.27.74,2.59,2.59,0,0,1,.83,2,2.59,2.59,0,0,1-.83,2A3.26,3.26,0,0,1,218,12Zm-2.52,23V16h5.11V35Z"/></g></g></svg>